solid ys001
	facet normal 1 -2.358591E-28 9.37213E-29
		outer loop
			vertex 6.7952647 12.040268 -5.663203
			vertex 6.7952647 12.211257 -5.097604
			vertex 6.7952647 12.040268 -0.007214
		endloop
	endfacet
	facet normal 1 -2.358591E-28 9.37213E-29
		outer loop
			vertex 6.7952647 12.040268 -0.007214
			vertex 6.7952647 12.211257 -5.097604
			vertex 6.7952647 12.425254 -4.532005
		endloop
	endfacet
	facet normal 1 -2.358591E-28 9.37213E-29
		outer loop
			vertex 6.7952647 12.040268 -0.007214
			vertex 6.7952647 12.425254 -4.532005
			vertex 6.7952647 12.652617 -3.966406
		endloop
	endfacet
	facet normal 1 -2.358591E-28 9.37213E-29
		outer loop
			vertex 6.7952647 12.652617 -3.966406
			vertex 6.7952647 12.926156 -3.400808
			vertex 6.7952647 12.040268 -0.007214
		endloop
	endfacet
	facet normal 1 -2.358591E-28 9.37213E-29
		outer loop
			vertex 6.7952647 12.040268 -0.007214
			vertex 6.7952647 12.926156 -3.400808
			vertex 6.7952647 13.204982 -2.835209
		endloop
	endfacet
	facet normal 1 -2.358591E-28 9.37213E-29
		outer loop
			vertex 6.7952647 12.040268 -0.007214
			vertex 6.7952647 13.204982 -2.835209
			vertex 6.7952647 13.507774 -2.26961
		endloop
	endfacet
	facet normal 1 -2.358591E-28 9.37213E-29
		outer loop
			vertex 6.7952647 13.507774 -2.26961
			vertex 6.7952647 13.901227 -1.704011
			vertex 6.7952647 12.040268 -0.007214
		endloop
	endfacet
	facet normal 1 -2.358591E-28 9.37213E-29
		outer loop
			vertex 6.7952647 12.040268 -0.007214
			vertex 6.7952647 13.901227 -1.704011
			vertex 6.7952647 14.304361 -1.138412
		endloop
	endfacet
	facet normal 1 -2.358591E-28 9.37213E-29
		outer loop
			vertex 6.7952647 12.040268 -0.007214
			vertex 6.7952647 14.304361 -1.138412
			vertex 6.7952647 14.805261 -0.572813
		endloop
	endfacet
	facet normal 1 -2.358591E-28 9.37213E-29
		outer loop
			vertex 6.7952647 14.805261 -0.572813
			vertex 6.7952647 15.286823 -0.007214
			vertex 6.7952647 12.040268 -0.007214
		endloop
	endfacet
	facet normal 1 -2.358591E-28 -9.37213E-29
		outer loop
			vertex 6.7952647 12.040268 5.648775
			vertex 6.7952647 12.040268 -0.007214
			vertex 6.7952647 12.211257 5.083176
		endloop
	endfacet
	facet normal 1 -2.358591E-28 -9.37213E-29
		outer loop
			vertex 6.7952647 12.211257 5.083176
			vertex 6.7952647 12.040268 -0.007214
			vertex 6.7952647 12.425254 4.517577
		endloop
	endfacet
	facet normal 1 -2.358591E-28 -9.37213E-29
		outer loop
			vertex 6.7952647 12.425254 4.517577
			vertex 6.7952647 12.040268 -0.007214
			vertex 6.7952647 12.652617 3.951978
		endloop
	endfacet
	facet normal 1 -2.358591E-28 -9.37213E-29
		outer loop
			vertex 6.7952647 12.652617 3.951978
			vertex 6.7952647 12.040268 -0.007214
			vertex 6.7952647 12.926156 3.38638
		endloop
	endfacet
	facet normal 1 -2.358591E-28 -9.37213E-29
		outer loop
			vertex 6.7952647 12.926156 3.38638
			vertex 6.7952647 12.040268 -0.007214
			vertex 6.7952647 13.204982 2.820781
		endloop
	endfacet
	facet normal 1 -2.358591E-28 -9.37213E-29
		outer loop
			vertex 6.7952647 13.204982 2.820781
			vertex 6.7952647 12.040268 -0.007214
			vertex 6.7952647 13.507774 2.255182
		endloop
	endfacet
	facet normal 1 -2.358591E-28 -9.37213E-29
		outer loop
			vertex 6.7952647 13.507774 2.255182
			vertex 6.7952647 12.040268 -0.007214
			vertex 6.7952647 13.901227 1.689583
		endloop
	endfacet
	facet normal 1 -2.358591E-28 -9.37213E-29
		outer loop
			vertex 6.7952647 13.901227 1.689583
			vertex 6.7952647 12.040268 -0.007214
			vertex 6.7952647 14.304361 1.123984
		endloop
	endfacet
	facet normal 1 -2.358591E-28 -9.37213E-29
		outer loop
			vertex 6.7952647 14.304361 1.123984
			vertex 6.7952647 12.040268 -0.007214
			vertex 6.7952647 14.805261 0.558385
		endloop
	endfacet
	facet normal 1 -2.358591E-28 -9.37213E-29
		outer loop
			vertex 6.7952647 14.805261 0.558385
			vertex 6.7952647 12.040268 -0.007214
			vertex 6.7952647 15.286823 -0.007214
		endloop
	endfacet
	facet normal -1 -2.358591E-28 9.37213E-29
		outer loop
			vertex -6.8049297 12.040268 -5.663203
			vertex -6.8049297 12.040268 -0.007214
			vertex -6.8049297 12.211257 -5.097604
		endloop
	endfacet
	facet normal -1 -2.358591E-28 9.37213E-29
		outer loop
			vertex -6.8049297 12.211257 -5.097604
			vertex -6.8049297 12.040268 -0.007214
			vertex -6.8049297 12.425254 -4.532005
		endloop
	endfacet
	facet normal -1 -2.358591E-28 9.37213E-29
		outer loop
			vertex -6.8049297 12.425254 -4.532005
			vertex -6.8049297 12.040268 -0.007214
			vertex -6.8049297 12.652617 -3.966406
		endloop
	endfacet
	facet normal -1 -2.358591E-28 9.37213E-29
		outer loop
			vertex -6.8049297 12.652617 -3.966406
			vertex -6.8049297 12.040268 -0.007214
			vertex -6.8049297 12.926156 -3.400808
		endloop
	endfacet
	facet normal -1 -2.358591E-28 9.37213E-29
		outer loop
			vertex -6.8049297 12.926156 -3.400808
			vertex -6.8049297 12.040268 -0.007214
			vertex -6.8049297 13.204982 -2.835209
		endloop
	endfacet
	facet normal -1 -2.358591E-28 9.37213E-29
		outer loop
			vertex -6.8049297 13.204982 -2.835209
			vertex -6.8049297 12.040268 -0.007214
			vertex -6.8049297 13.507774 -2.26961
		endloop
	endfacet
	facet normal -1 -2.358591E-28 9.37213E-29
		outer loop
			vertex -6.8049297 13.507774 -2.26961
			vertex -6.8049297 12.040268 -0.007214
			vertex -6.8049297 13.901227 -1.704011
		endloop
	endfacet
	facet normal -1 -2.358591E-28 9.37213E-29
		outer loop
			vertex -6.8049297 13.901227 -1.704011
			vertex -6.8049297 12.040268 -0.007214
			vertex -6.8049297 14.304361 -1.138412
		endloop
	endfacet
	facet normal -1 -2.358591E-28 9.37213E-29
		outer loop
			vertex -6.8049297 14.304361 -1.138412
			vertex -6.8049297 12.040268 -0.007214
			vertex -6.8049297 14.805261 -0.572813
		endloop
	endfacet
	facet normal -1 -2.358591E-28 9.37213E-29
		outer loop
			vertex -6.8049297 14.805261 -0.572813
			vertex -6.8049297 12.040268 -0.007214
			vertex -6.8049297 15.286823 -0.007214
		endloop
	endfacet
	facet normal 0 -0.9728935 -0.23125379
		outer loop
			vertex -6.80493 12.040268 5.648775
			vertex -6.80493 12.291435 4.864978
			vertex 6.795265 12.040268 5.648775
		endloop
	endfacet
	facet normal 0 -0.9728935 -0.23125379
		outer loop
			vertex 6.795265 12.040268 5.648775
			vertex -6.80493 12.291435 4.864978
			vertex 6.795265 12.291435 4.864978
		endloop
	endfacet
	facet normal 0 -0.93540096 -0.35358882
		outer loop
			vertex 6.795265 12.291435 4.864978
			vertex -6.80493 12.291435 4.864978
			vertex -6.80493 12.59049 4.09752
		endloop
	endfacet
	facet normal 0 -0.93540096 -0.35358882
		outer loop
			vertex 6.795265 12.291435 4.864978
			vertex -6.80493 12.59049 4.09752
			vertex 6.795265 12.59049 4.09752
		endloop
	endfacet
	facet normal 0 -0.9241229 -0.38209522
		outer loop
			vertex 6.795265 12.59049 4.09752
			vertex -6.80493 12.59049 4.09752
			vertex -6.80493 13.307775 2.6149976
		endloop
	endfacet
	facet normal 0 -0.9241229 -0.38209522
		outer loop
			vertex 6.795265 12.59049 4.09752
			vertex -6.80493 13.307775 2.6149976
			vertex 6.795265 13.307775 2.6149976
		endloop
	endfacet
	facet normal 0 -0.89050287 -0.45497763
		outer loop
			vertex 6.795265 13.307775 2.6149976
			vertex -6.80493 13.307775 2.6149976
			vertex -6.80493 13.507705 2.2552943
		endloop
	endfacet
	facet normal 0 -0.89050287 -0.45497763
		outer loop
			vertex 6.795265 13.307775 2.6149976
			vertex -6.80493 13.507705 2.2552943
			vertex 6.795265 13.507705 2.2552943
		endloop
	endfacet
	facet normal 0 -0.8502265 -0.52641696
		outer loop
			vertex 6.795265 13.507705 2.2552943
			vertex -6.80493 13.507705 2.2552943
			vertex -6.80493 13.739064 1.9151305
		endloop
	endfacet
	facet normal 0 -0.8502265 -0.52641696
		outer loop
			vertex 6.795265 13.507705 2.2552943
			vertex -6.80493 13.739064 1.9151305
			vertex 6.795265 13.739064 1.9151305
		endloop
	endfacet
	facet normal 0 -0.8116611 -0.5841286
		outer loop
			vertex 6.795265 13.739064 1.9151305
			vertex -6.80493 13.739064 1.9151305
			vertex -6.80493 14.214851 1.2422074
		endloop
	endfacet
	facet normal 0 -0.8116611 -0.5841286
		outer loop
			vertex 6.795265 13.739064 1.9151305
			vertex -6.80493 14.214851 1.2422074
			vertex 6.795265 14.214851 1.2422074
		endloop
	endfacet
	facet normal 0 -0.8061623 -0.5916945
		outer loop
			vertex 6.795265 14.214851 1.2422074
			vertex -6.80493 14.214851 1.2422074
			vertex -6.80493 15.286823 -0.007214
		endloop
	endfacet
	facet normal 0 -0.8061623 -0.5916945
		outer loop
			vertex 6.795265 14.214851 1.2422074
			vertex -6.80493 15.286823 -0.007214
			vertex 6.795265 15.286823 -0.007214
		endloop
	endfacet
	facet normal -1 -2.358591E-28 9.37213E-29
		outer loop
			vertex -6.8049297 12.040268 -5.663203
			vertex -6.8049297 12.040268 -0.007214
			vertex -6.8049297 12.211257 -5.097604
		endloop
	endfacet
	facet normal -1 -2.358591E-28 9.37213E-29
		outer loop
			vertex -6.8049297 12.211257 -5.097604
			vertex -6.8049297 12.040268 -0.007214
			vertex -6.8049297 12.425254 -4.532005
		endloop
	endfacet
	facet normal -1 -2.358591E-28 9.37213E-29
		outer loop
			vertex -6.8049297 12.425254 -4.532005
			vertex -6.8049297 12.040268 -0.007214
			vertex -6.8049297 12.652617 -3.966406
		endloop
	endfacet
	facet normal -1 -2.358591E-28 9.37213E-29
		outer loop
			vertex -6.8049297 12.652617 -3.966406
			vertex -6.8049297 12.040268 -0.007214
			vertex -6.8049297 12.926156 -3.400808
		endloop
	endfacet
	facet normal -1 -2.358591E-28 9.37213E-29
		outer loop
			vertex -6.8049297 12.926156 -3.400808
			vertex -6.8049297 12.040268 -0.007214
			vertex -6.8049297 13.204982 -2.835209
		endloop
	endfacet
	facet normal -1 -2.358591E-28 9.37213E-29
		outer loop
			vertex -6.8049297 13.204982 -2.835209
			vertex -6.8049297 12.040268 -0.007214
			vertex -6.8049297 13.507774 -2.26961
		endloop
	endfacet
	facet normal -1 -2.358591E-28 9.37213E-29
		outer loop
			vertex -6.8049297 13.507774 -2.26961
			vertex -6.8049297 12.040268 -0.007214
			vertex -6.8049297 13.901227 -1.704011
		endloop
	endfacet
	facet normal -1 -2.358591E-28 9.37213E-29
		outer loop
			vertex -6.8049297 13.901227 -1.704011
			vertex -6.8049297 12.040268 -0.007214
			vertex -6.8049297 14.304361 -1.138412
		endloop
	endfacet
	facet normal -1 -2.358591E-28 9.37213E-29
		outer loop
			vertex -6.8049297 14.304361 -1.138412
			vertex -6.8049297 12.040268 -0.007214
			vertex -6.8049297 14.805261 -0.572813
		endloop
	endfacet
	facet normal -1 -2.358591E-28 9.37213E-29
		outer loop
			vertex -6.8049297 14.805261 -0.572813
			vertex -6.8049297 12.040268 -0.007214
			vertex -6.8049297 15.286823 -0.007214
		endloop
	endfacet
	facet normal -1 -2.358591E-28 -9.37213E-29
		outer loop
			vertex -6.8049297 12.040268 5.648775
			vertex -6.8049297 12.211257 5.083176
			vertex -6.8049297 12.040268 -0.007214
		endloop
	endfacet
	facet normal -1 -2.358591E-28 -9.37213E-29
		outer loop
			vertex -6.8049297 12.040268 -0.007214
			vertex -6.8049297 12.211257 5.083176
			vertex -6.8049297 12.425254 4.517577
		endloop
	endfacet
	facet normal -1 -2.358591E-28 -9.37213E-29
		outer loop
			vertex -6.8049297 12.040268 -0.007214
			vertex -6.8049297 12.425254 4.517577
			vertex -6.8049297 12.652617 3.951978
		endloop
	endfacet
	facet normal -1 -2.358591E-28 -9.37213E-29
		outer loop
			vertex -6.8049297 12.652617 3.951978
			vertex -6.8049297 12.926156 3.38638
			vertex -6.8049297 12.040268 -0.007214
		endloop
	endfacet
	facet normal -1 -2.358591E-28 -9.37213E-29
		outer loop
			vertex -6.8049297 12.040268 -0.007214
			vertex -6.8049297 12.926156 3.38638
			vertex -6.8049297 13.204982 2.820781
		endloop
	endfacet
	facet normal -1 -2.358591E-28 -9.37213E-29
		outer loop
			vertex -6.8049297 12.040268 -0.007214
			vertex -6.8049297 13.204982 2.820781
			vertex -6.8049297 13.507774 2.255182
		endloop
	endfacet
	facet normal -1 -2.358591E-28 -9.37213E-29
		outer loop
			vertex -6.8049297 13.507774 2.255182
			vertex -6.8049297 13.901227 1.689583
			vertex -6.8049297 12.040268 -0.007214
		endloop
	endfacet
	facet normal -1 -2.358591E-28 -9.37213E-29
		outer loop
			vertex -6.8049297 12.040268 -0.007214
			vertex -6.8049297 13.901227 1.689583
			vertex -6.8049297 14.304361 1.123984
		endloop
	endfacet
	facet normal -1 -2.358591E-28 -9.37213E-29
		outer loop
			vertex -6.8049297 12.040268 -0.007214
			vertex -6.8049297 14.304361 1.123984
			vertex -6.8049297 14.805261 0.558385
		endloop
	endfacet
	facet normal -1 -2.358591E-28 -9.37213E-29
		outer loop
			vertex -6.8049297 14.805261 0.558385
			vertex -6.8049297 15.286823 -0.007214
			vertex -6.8049297 12.040268 -0.007214
		endloop
	endfacet
	facet normal 0 -0.809725 0.5868095
		outer loop
			vertex -6.80493 15.286823 -0.007214
			vertex -6.80493 14.214851 -1.2566354
			vertex 6.795265 15.286823 -0.007214
		endloop
	endfacet
	facet normal 0 -0.809725 0.5868095
		outer loop
			vertex 6.795265 15.286823 -0.007214
			vertex -6.80493 14.214851 -1.2566354
			vertex 6.795265 14.214851 -1.2566354
		endloop
	endfacet
	facet normal 0 -0.8061623 0.5916945
		outer loop
			vertex 6.795265 14.214851 -1.2566354
			vertex -6.80493 14.214851 -1.2566354
			vertex -6.80493 13.739064 -1.9295584
		endloop
	endfacet
	facet normal 0 -0.8061623 0.5916945
		outer loop
			vertex 6.795265 14.214851 -1.2566354
			vertex -6.80493 13.739064 -1.9295584
			vertex 6.795265 13.739064 -1.9295584
		endloop
	endfacet
	facet normal 0 -0.8116611 0.5841286
		outer loop
			vertex 6.795265 13.739064 -1.9295584
			vertex -6.80493 13.739064 -1.9295584
			vertex -6.80493 13.507705 -2.2697222
		endloop
	endfacet
	facet normal 0 -0.8116611 0.5841286
		outer loop
			vertex 6.795265 13.739064 -1.9295584
			vertex -6.80493 13.507705 -2.2697222
			vertex 6.795265 13.507705 -2.2697222
		endloop
	endfacet
	facet normal 0 -0.8502265 0.52641696
		outer loop
			vertex 6.795265 13.507705 -2.2697222
			vertex -6.80493 13.507705 -2.2697222
			vertex -6.80493 13.307775 -2.6294255
		endloop
	endfacet
	facet normal 0 -0.8502265 0.52641696
		outer loop
			vertex 6.795265 13.507705 -2.2697222
			vertex -6.80493 13.307775 -2.6294255
			vertex 6.795265 13.307775 -2.6294255
		endloop
	endfacet
	facet normal 0 -0.89050287 0.45497763
		outer loop
			vertex 6.795265 13.307775 -2.6294255
			vertex -6.80493 13.307775 -2.6294255
			vertex -6.80493 12.59049 -4.111948
		endloop
	endfacet
	facet normal 0 -0.89050287 0.45497763
		outer loop
			vertex 6.795265 13.307775 -2.6294255
			vertex -6.80493 12.59049 -4.111948
			vertex 6.795265 12.59049 -4.111948
		endloop
	endfacet
	facet normal 0 -0.9241229 0.38209522
		outer loop
			vertex 6.795265 12.59049 -4.111948
			vertex -6.80493 12.59049 -4.111948
			vertex -6.80493 12.291435 -4.8794055
		endloop
	endfacet
	facet normal 0 -0.9241229 0.38209522
		outer loop
			vertex 6.795265 12.59049 -4.111948
			vertex -6.80493 12.291435 -4.8794055
			vertex 6.795265 12.291435 -4.8794055
		endloop
	endfacet
	facet normal 0 -0.93540096 0.35358882
		outer loop
			vertex 6.795265 12.291435 -4.8794055
			vertex -6.80493 12.291435 -4.8794055
			vertex -6.80493 12.040268 -5.663203
		endloop
	endfacet
	facet normal 0 -0.93540096 0.35358882
		outer loop
			vertex 6.795265 12.291435 -4.8794055
			vertex -6.80493 12.040268 -5.663203
			vertex 6.795265 12.040268 -5.663203
		endloop
	endfacet
endsolid ys001
